<?xml version="1.0" standalone="no"?>
<!DOCTYPE svg PUBLIC "-//W3C//DTD SVG 20010904//EN"
 "http://www.w3.org/TR/2001/REC-SVG-20010904/DTD/svg10.dtd">
<svg version="1.0" xmlns="http://www.w3.org/2000/svg"
 width="200.000000pt" height="200.000000pt" viewBox="0 0 200.000000 200.000000"
 preserveAspectRatio="xMidYMid meet">
<metadata>
Created by potrace 1.14, written by Peter Selinger 2001-2017
</metadata>
<g transform="translate(0.000000,200.000000) scale(0.100000,-0.100000)"
fill="#000000" stroke="none">
<path d="M0 1951 c0 -30 5 -52 13 -55 10 -5 10 -7 0 -12 -18 -8 -16 -32 2 -51
14 -14 14 -17 -2 -36 -18 -19 -17 -19 7 -13 17 5 21 4 11 -2 -8 -6 -10 -15 -6
-23 6 -9 3 -11 -8 -6 -15 6 -17 -4 -17 -93 0 -80 3 -100 14 -100 8 0 17 -9 21
-19 3 -11 14 -22 23 -24 16 -4 16 -5 0 -6 -9 0 -24 9 -32 21 -9 12 -18 19 -21
16 -8 -7 5 -38 16 -38 5 0 9 -4 9 -10 0 -5 -7 -10 -15 -10 -13 0 -15 -34 -15
-250 0 -145 4 -250 9 -250 5 0 19 -16 31 -35 12 -19 28 -35 36 -35 8 0 11 -6
7 -17 -3 -10 -3 -15 2 -11 9 9 55 -49 55 -69 0 -22 -18 -14 -22 9 -2 13 -14
28 -28 35 -29 13 -83 6 -77 -11 3 -6 10 -10 16 -9 6 2 11 -3 11 -11 0 -17 34
-31 51 -21 6 4 9 0 7 -11 -2 -13 4 -19 17 -21 11 -1 36 -6 55 -11 l35 -8 -31
-15 c-20 -11 -38 -13 -53 -7 -19 7 -21 5 -16 -12 4 -11 2 -20 -3 -20 -14 0
-21 22 -15 52 6 29 -24 49 -34 22 -4 -11 -13 -14 -29 -10 l-24 6 0 -109 0
-109 32 8 c18 4 67 11 108 14 93 6 63 -10 -45 -26 -38 -5 -76 -14 -83 -20 -9
-8 -12 -75 -12 -274 l0 -264 194 0 194 0 7 88 c5 62 15 102 33 140 26 54 55
81 67 62 3 -5 1 -10 -5 -10 -8 0 -7 -6 1 -21 8 -17 8 -20 -1 -14 -8 5 -11 2
-7 -11 3 -11 8 -36 12 -56 5 -31 14 -42 50 -64 40 -23 45 -30 46 -62 l0 -37
15 45 c7 25 14 61 14 81 0 19 5 40 11 46 8 8 7 17 -5 34 -9 13 -16 30 -16 37
0 7 -7 20 -15 28 -8 9 -15 21 -15 27 0 7 7 4 14 -6 13 -17 15 -17 29 3 14 20
21 21 74 15 32 -3 69 -2 83 3 l25 10 -30 6 c-73 15 -110 32 -113 50 -2 10 0
22 5 27 9 9 191 -4 246 -17 15 -4 27 -2 27 4 0 15 -118 62 -158 62 -20 0 -57
9 -80 20 -44 20 -68 19 -125 -2 -30 -11 -36 -32 -12 -42 8 -3 20 -18 26 -33 9
-24 7 -30 -11 -45 -20 -16 -22 -16 -39 0 -10 9 -28 25 -39 34 -12 10 -25 30
-28 45 -4 15 -10 30 -14 33 -3 3 -15 41 -25 85 -21 92 -26 222 -8 233 6 4 15
20 18 35 9 35 11 36 79 38 48 2 56 5 56 22 0 16 5 18 30 15 26 -4 30 -1 30 19
0 30 -42 73 -72 73 -13 0 -30 5 -38 10 -12 8 -10 10 10 10 l25 1 -24 10 c-25
10 -20 25 11 31 23 4 104 -51 117 -80 17 -36 13 -97 -8 -123 -10 -13 -23 -46
-29 -74 -7 -27 -14 -61 -18 -75 -4 -21 -4 -22 6 -7 6 9 20 17 31 17 15 0 28
18 53 74 55 121 64 184 41 277 -6 22 -3 27 17 33 19 5 20 8 8 16 -12 7 -12 12
-3 21 10 10 18 10 37 1 25 -11 43 -2 31 17 -3 5 -1 12 5 16 5 3 10 1 10 -5 0
-6 8 -9 18 -6 9 3 27 -3 40 -14 18 -15 20 -23 13 -42 -14 -37 -2 -78 23 -79
41 -2 292 -8 351 -8 33 0 64 4 70 9 6 5 31 11 57 14 45 5 46 5 64 -32 21 -45
20 -87 -5 -145 -25 -59 -17 -70 37 -52 47 17 137 23 149 11 4 -4 8 -34 8 -66
0 -50 3 -60 20 -65 19 -6 19 -7 -4 -14 -30 -8 -39 -29 -17 -37 9 -3 16 -13 16
-22 0 -13 4 -11 16 6 8 12 20 22 26 22 12 0 -30 -44 -44 -46 -5 -1 -12 -2 -18
-3 -5 0 -10 -11 -10 -23 0 -21 1 -21 13 -4 13 18 14 18 35 0 12 -10 22 -28 22
-39 0 -16 -2 -17 -10 -5 -12 19 -50 22 -50 3 0 -8 5 -11 10 -8 6 3 10 1 10 -4
0 -6 -7 -11 -15 -11 -11 0 -13 -8 -10 -32 3 -18 2 -26 -1 -18 -4 8 -15 22 -26
31 -20 18 -24 39 -8 39 6 0 10 -4 10 -10 0 -5 5 -10 10 -10 16 0 11 38 -6 48
-14 8 -14 12 -3 30 8 12 20 22 27 22 15 0 11 22 -5 27 -16 6 -64 -71 -57 -93
4 -14 3 -16 -4 -5 -8 11 -11 11 -18 -2 -5 -9 -29 -30 -53 -47 -36 -27 -51 -31
-87 -28 -39 3 -44 1 -44 -17 0 -16 -2 -17 -9 -5 -6 8 -7 18 -5 22 3 4 -1 17
-9 28 -14 20 -15 19 -39 -17 -40 -61 -70 -113 -64 -113 3 0 16 12 30 27 30 32
42 25 28 -16 -6 -17 -9 -45 -6 -63 7 -41 -19 -183 -52 -290 -5 -17 16 -18 341
-18 206 0 354 4 365 10 14 7 18 22 19 70 0 33 -4 60 -9 60 -6 0 -10 8 -10 18
0 14 2 15 10 2 8 -12 10 -9 10 13 0 15 -7 39 -16 53 -14 20 -14 23 -2 19 11
-5 15 4 16 40 2 42 1 45 -17 35 -35 -18 -47 -10 -13 10 l32 20 -2 80 c-1 74
-9 98 -21 68 -4 -10 -6 -10 -6 0 -1 7 6 15 14 18 20 8 19 24 -1 24 -14 0 -14
3 -4 15 9 10 9 15 1 15 -6 0 -10 3 -10 8 4 22 -3 31 -18 26 -16 -5 -16 -4 -3
6 11 9 12 13 2 17 -6 2 -9 9 -6 14 3 6 1 16 -5 23 -9 10 -8 15 3 19 10 4 13 1
10 -7 -4 -10 2 -12 20 -9 23 5 26 10 26 49 0 40 -2 44 -25 44 -14 0 -25 4 -25
9 0 5 -10 13 -22 17 -27 8 -63 43 -54 52 4 3 13 -4 22 -16 8 -12 24 -22 34
-22 10 0 20 -4 22 -9 2 -4 13 -12 26 -15 19 -6 22 -4 22 18 0 14 -9 31 -22 40
l-22 16 22 0 c21 0 22 4 22 79 0 74 -2 80 -23 87 -25 8 -38 24 -30 37 3 4 11
0 17 -9 22 -30 33 -7 35 70 1 58 -2 75 -14 80 -8 3 -15 14 -15 25 0 11 -6 21
-12 24 -10 4 -10 7 0 18 9 9 12 10 12 1 0 -7 7 -12 15 -12 8 0 15 5 15 10 0 6
-6 10 -12 10 -9 0 -8 3 2 10 24 15 1 25 -30 13 -17 -6 -31 -8 -31 -5 -5 27 -4
62 3 62 4 0 8 -7 8 -15 0 -10 10 -15 30 -15 l29 0 -2 73 c-1 51 -6 71 -14 69
-17 -3 -17 14 0 21 8 3 14 28 15 71 2 60 0 66 -19 66 -11 0 -34 7 -51 16 -25
13 -32 13 -39 3 -11 -18 -21 -6 -13 15 4 10 18 16 36 16 17 0 27 -4 23 -10 -3
-5 0 -10 7 -10 7 0 23 -3 36 -6 16 -5 22 -2 22 9 0 8 -6 17 -12 20 -10 4 -10
7 0 18 16 17 16 69 0 69 -10 0 -10 2 -1 8 8 5 12 45 12 118 l1 111 -180 1
c-176 0 -179 0 -157 -19 12 -10 18 -18 14 -19 -4 0 -17 9 -28 19 -19 18 -38
19 -250 20 -176 0 -228 -3 -222 -12 5 -9 3 -9 -8 -1 -18 14 -229 18 -229 4 0
-5 7 -10 15 -10 8 0 15 -4 15 -9 0 -6 -11 -6 -29 0 -17 6 -40 9 -53 7 -21 -3
-21 -4 10 -18 29 -14 43 -30 25 -30 -5 0 -18 -3 -30 -6 -14 -4 -23 -2 -23 5 0
5 7 8 15 5 22 -9 18 9 -6 24 -12 8 -18 19 -15 28 4 11 -4 14 -34 14 -22 0 -40
-5 -40 -11 0 -5 4 -7 10 -4 6 3 7 -1 4 -9 -4 -11 0 -16 14 -16 22 0 38 -17 27
-28 -3 -3 -11 0 -16 8 -8 12 -9 10 -4 -6 4 -16 -1 -26 -20 -38 -25 -17 -27
-17 -49 6 -38 38 -39 56 -6 73 17 9 30 18 30 20 0 3 -155 4 -345 4 -222 0
-345 -4 -345 -10 0 -6 -5 -7 -12 -3 -8 5 -9 2 -5 -9 22 -54 22 -53 4 -38 -9 7
-17 24 -17 37 0 20 -5 24 -30 24 -29 0 -30 -1 -30 -49z m487 -17 c-3 -27 0
-45 7 -48 8 -3 8 -5 -1 -5 -6 -1 -19 7 -29 16 -15 16 -15 17 2 25 11 4 4 5
-16 1 -19 -4 -48 -7 -63 -6 -17 0 -24 -3 -16 -7 8 -6 6 -11 -9 -19 -14 -7 -23
-8 -27 -1 -4 6 -10 8 -15 5 -5 -3 -11 -1 -14 4 -3 5 -22 12 -41 15 -19 4 -35
11 -35 16 0 5 6 8 13 6 31 -10 77 -15 76 -8 -1 4 -1 16 0 27 1 14 4 16 13 7 9
-9 14 -7 24 6 13 16 13 16 14 -2 0 -15 3 -16 15 -6 8 7 15 10 15 7 0 -2 17 1
37 8 21 7 42 11 47 8 4 -3 6 -25 3 -49z m858 46 c3 -5 1 -10 -4 -10 -6 0 -11
5 -11 10 0 6 2 10 4 10 3 0 8 -4 11 -10z m645 -22 c0 -5 -7 -16 -16 -25 -8 -9
-13 -22 -10 -29 3 -8 1 -14 -4 -14 -13 0 -17 41 -7 73 7 22 12 25 23 16 8 -6
14 -16 14 -21z m-961 4 c9 -11 30 -24 46 -30 17 -7 21 -11 10 -9 -11 1 -26 -2
-34 -7 -10 -6 -12 -5 -7 2 5 8 -1 12 -14 12 -16 0 -20 -5 -16 -15 3 -9 0 -15
-10 -15 -8 0 -13 4 -9 9 3 5 -4 12 -15 16 -18 6 -19 8 -4 31 19 29 31 30 53 6z
m566 8 c3 -5 1 -10 -4 -10 -6 0 -11 5 -11 10 0 6 2 10 4 10 3 0 8 -4 11 -10z
m237 -16 c-3 -17 -8 -22 -15 -15 -7 7 -6 15 3 26 17 20 18 19 12 -11z m-592 6
c0 -5 -2 -10 -4 -10 -3 0 -8 5 -11 10 -3 6 -1 10 4 10 6 0 11 -4 11 -10z m170
-22 c0 -12 -12 -9 -32 6 -26 19 -22 27 7 14 14 -6 25 -15 25 -20z m105 22 c-3
-5 -12 -10 -18 -10 -7 0 -6 4 3 10 19 12 23 12 15 0z m273 -3 c-15 -10 -15
-12 4 -29 12 -10 17 -18 13 -18 -5 0 -16 7 -26 16 -20 18 -15 44 10 43 15 0
15 -1 -1 -12z m-1604 -16 c6 -10 -26 -21 -62 -21 -19 0 -21 2 -10 15 14 16 64
20 72 6z m416 -20 c0 -5 -12 -6 -27 -3 -24 5 -25 6 -8 12 21 8 35 4 35 -9z
m93 -52 c-4 -20 -9 -25 -24 -22 -14 4 -19 14 -19 37 0 42 8 49 30 28 12 -11
17 -26 13 -43z m824 55 c-3 -3 -12 -4 -19 -1 -8 3 -5 6 6 6 11 1 17 -2 13 -5z
m243 -4 c0 -5 -6 -10 -14 -10 -8 0 -18 5 -21 10 -3 6 3 10 14 10 12 0 21 -4
21 -10z m-350 -10 c0 -5 -2 -10 -4 -10 -3 0 -8 5 -11 10 -3 6 -1 10 4 10 6 0
11 -4 11 -10z m-417 -27 c21 -3 43 0 51 6 22 18 126 2 126 -20 0 -4 -7 -6 -15
-3 -8 4 -15 1 -15 -5 0 -6 17 -11 40 -11 43 0 159 -42 172 -63 6 -9 8 -9 8 2
0 8 8 4 19 -10 20 -24 20 -24 35 -4 15 20 15 20 16 -2 0 -12 -6 -24 -12 -27
-7 -3 -1 -3 13 0 20 4 31 -1 46 -19 10 -14 28 -27 39 -30 18 -5 17 -5 -3 -12
-33 -10 -28 -25 7 -25 17 0 30 -3 30 -7 0 -5 11 -13 25 -19 21 -10 25 -9 30 7
4 10 10 19 15 19 4 0 11 10 15 23 7 21 7 21 12 2 3 -10 0 -21 -6 -23 -6 -2
-11 -8 -11 -14 0 -6 7 -7 16 -4 9 4 22 2 29 -4 10 -8 15 -6 20 9 9 28 26 26
55 -4 13 -14 31 -25 39 -25 9 -1 27 -7 41 -16 23 -14 23 -14 3 -9 -13 4 -23 2
-23 -3 0 -6 -7 -13 -16 -16 -10 -4 -18 3 -25 23 -9 26 -49 51 -49 31 0 -12
-50 -24 -90 -22 -30 1 -31 0 -10 -6 14 -5 27 -17 29 -27 3 -19 3 -19 -17 -2
-11 10 -23 14 -26 9 -7 -12 8 -25 64 -50 38 -18 41 -30 5 -22 -31 7 -42 9 -56
9 -9 1 -16 7 -16 14 0 17 -33 86 -45 93 -20 12 -17 -3 7 -39 14 -20 25 -47 25
-60 0 -14 7 -30 15 -37 8 -7 15 -18 15 -24 0 -6 20 -23 45 -38 25 -15 45 -32
45 -38 0 -11 -50 17 -62 34 -4 6 -11 7 -15 2 -4 -4 2 -16 15 -26 21 -18 32
-47 12 -35 -13 8 -13 4 5 -38 8 -20 15 -47 15 -61 0 -23 3 -24 35 -19 30 5 34
3 29 -11 -4 -11 -13 -14 -32 -9 -17 4 -23 2 -18 -6 4 -6 16 -11 26 -11 13 0
17 -5 14 -14 -3 -8 -1 -17 5 -21 7 -4 11 5 11 22 1 25 2 26 11 10 8 -13 18
-17 35 -13 19 5 22 3 17 -11 -10 -27 -25 -33 -63 -26 -32 6 -34 5 -21 -10 11
-15 11 -17 -2 -17 -8 0 -17 6 -20 13 -2 6 -7 9 -11 6 -4 -4 4 -18 18 -32 14
-14 28 -21 31 -16 4 5 13 5 24 -1 10 -5 21 -7 23 -4 3 2 17 0 30 -5 18 -7 29
-6 38 2 8 8 8 5 -1 -10 -14 -23 -39 -31 -39 -13 0 6 -9 10 -20 10 -13 0 -22
-9 -26 -26 -5 -18 -9 -22 -14 -13 -5 7 -6 19 -3 28 4 14 3 14 -6 1 -10 -13
-12 -13 -21 0 -5 8 -10 11 -10 6 0 -6 -7 -1 -15 10 -14 18 -14 17 -15 -13 0
-44 2 -48 23 -46 12 2 17 -4 17 -21 0 -14 5 -26 12 -28 6 -2 9 -10 6 -18 -3
-9 -11 -6 -31 13 -32 33 -37 33 -37 2 0 -36 -23 -115 -33 -115 -4 0 -6 8 -3
18 31 97 22 176 -27 244 l-19 26 -42 -19 c-53 -24 -83 -24 -154 1 -54 19 -162
86 -207 127 -42 40 -206 144 -291 186 -98 49 -149 64 -159 48 -8 -14 -52 -14
-60 -1 -3 6 -26 10 -51 10 -30 0 -44 4 -44 13 0 9 -10 12 -30 9 -23 -3 -30 0
-30 12 0 54 -290 -35 -377 -117 -26 -23 -36 -19 -35 17 0 14 -5 24 -11 23 -5
-1 -12 4 -15 12 -3 10 0 12 12 8 10 -4 22 -7 27 -7 6 0 7 -9 4 -20 -9 -30 14
-25 61 13 23 18 39 38 37 47 -4 13 -3 13 6 0 8 -12 13 -12 38 0 40 20 63 41
57 51 -3 5 4 9 15 9 14 0 21 6 21 19 0 15 -5 18 -22 13 -13 -3 -26 -10 -29
-15 -13 -19 -26 3 -23 35 3 24 1 29 -6 18 -8 -13 -11 -13 -19 -1 -7 12 -10 11
-12 -2 -3 -12 -8 -14 -19 -7 -13 8 -13 11 -1 19 23 15 -26 34 -75 28 -34 -3
-47 0 -60 14 -10 11 -12 19 -6 19 7 0 12 -4 12 -10 0 -5 10 -10 21 -10 18 0
21 5 17 30 -3 17 -3 30 -2 30 1 0 9 3 18 6 11 4 16 1 16 -10 0 -26 27 -18 34
10 6 21 9 24 21 14 17 -14 20 -34 4 -24 -8 4 -9 0 -4 -15 5 -16 3 -20 -9 -15
-23 9 -20 -9 4 -24 18 -11 20 -10 20 13 0 33 28 33 64 0 24 -22 46 -32 46 -21
0 2 3 12 6 20 5 12 2 15 -10 10 -12 -5 -16 0 -16 16 0 17 -5 21 -19 17 -23 -6
-38 21 -16 29 8 4 15 10 15 15 0 4 -6 6 -13 3 -12 -4 -93 74 -84 82 5 6 47 -8
47 -15 0 -4 13 -6 30 -3 25 4 30 1 30 -17 0 -11 6 -21 14 -21 8 0 12 9 11 25
-2 17 2 25 12 25 11 0 14 -7 9 -26 -7 -26 -6 -27 33 -21 24 3 39 1 35 -4 -3
-5 -11 -9 -17 -9 -7 0 -18 -14 -25 -32 -10 -26 -9 -35 3 -48 8 -9 15 -22 15
-28 0 -7 5 -12 12 -12 6 0 4 -6 -7 -13 -13 -11 -15 -16 -6 -22 19 -11 59 14
65 41 4 15 30 37 76 64 l69 42 -19 21 c-11 11 -17 23 -14 26 3 3 13 -5 23 -18
17 -22 21 -23 55 -11 20 6 34 15 31 19 -2 5 7 6 21 3 17 -3 33 3 48 17 34 32
102 50 146 38 19 -5 52 -11 73 -14z m-823 2 c-12 -15 -30 -12 -30 6 0 5 10 9
21 9 18 0 19 -2 9 -15z m1055 -3 c-12 -12 -35 -10 -35 3 0 8 7 11 20 8 12 -3
18 -8 15 -11z m645 2 c0 -2 -9 -4 -20 -4 -11 0 -20 4 -20 9 0 5 9 7 20 4 11
-3 20 -7 20 -9z m45 6 c3 -5 1 -10 -4 -10 -6 0 -11 5 -11 10 0 6 2 10 4 10 3
0 8 -4 11 -10z m-1845 -20 c0 -5 -4 -10 -10 -10 -5 0 -10 5 -10 10 0 6 5 10
10 10 6 0 10 -4 10 -10z m680 1 c0 -6 -9 -9 -20 -8 -11 1 -20 5 -20 9 0 4 9 8
20 8 11 0 20 -4 20 -9z m1212 -23 c-11 -11 -32 -3 -32 12 0 4 9 6 21 3 13 -4
17 -9 11 -15z m-1832 3 c0 -5 -7 -11 -14 -14 -10 -4 -13 -1 -9 9 6 15 23 19
23 5z m1279 -25 c-1 -16 -2 -17 -6 -3 -2 9 -9 17 -14 17 -5 0 -9 4 -9 10 0 5
7 7 15 4 8 -4 14 -16 14 -28z m-854 14 c3 -5 1 -10 -4 -10 -6 0 -11 5 -11 10
0 6 2 10 4 10 3 0 8 -4 11 -10z m1182 -1 c6 -6 9 -17 6 -24 -2 -7 4 -15 14
-18 14 -4 15 -5 2 -6 -9 0 -29 9 -43 20 -21 17 -25 24 -14 30 17 11 22 11 35
-2z m-1533 -5 c20 -8 21 -20 2 -27 -8 -3 -16 2 -19 14 -6 21 -5 22 17 13z
m1436 -25 c0 -5 -4 -9 -10 -9 -5 0 -10 7 -10 16 0 8 5 12 10 9 6 -3 10 -10 10
-16z m-1112 -1 c18 -18 14 -30 -8 -23 -11 4 -20 2 -20 -4 0 -6 -10 -11 -22
-11 -20 0 -20 -1 -5 -18 20 -22 23 -39 4 -23 -8 6 -16 8 -19 5 -7 -6 -48 26
-48 37 0 4 10 5 23 1 20 -5 21 -4 7 13 -9 11 -10 16 -3 11 7 -4 23 0 35 8 27
19 40 20 56 4z m997 -8 c3 -6 -1 -7 -9 -4 -9 3 -16 1 -16 -5 0 -16 -17 -13
-24 4 -4 11 1 15 19 15 13 0 27 -4 30 -10z m436 1 c-7 -5 -10 -14 -7 -20 10
-15 -5 -13 -27 3 -18 14 -18 14 0 19 10 3 25 5 33 6 12 1 13 -1 1 -8z m-224
-33 c-21 -7 -32 -7 -40 1 -8 8 0 11 29 10 39 -1 39 -1 11 -11z m193 -7 c0 -6
-4 -13 -10 -16 -5 -3 -10 1 -10 9 0 9 5 16 10 16 6 0 10 -4 10 -9z m-1810 -15
c0 -19 -28 -28 -51 -16 -25 14 -24 24 1 17 11 -3 23 -1 26 4 8 14 24 11 24 -5z
m1580 -11 c14 -19 14 -19 -2 -6 -10 7 -18 18 -18 24 0 6 1 8 3 6 1 -2 9 -13
17 -24z m-150 5 c0 -5 7 -10 15 -10 9 0 12 -6 9 -15 -4 -8 1 -17 10 -21 17 -7
23 -44 6 -44 -5 0 -7 7 -4 15 4 8 -1 17 -10 21 -9 3 -16 12 -16 19 0 16 -25
26 -45 19 -8 -4 -15 -2 -15 4 0 11 16 20 38 21 6 1 12 -3 12 -9z m340 -15 c0
-8 5 -15 10 -15 6 0 10 -4 10 -10 0 -21 -28 -9 -32 15 -3 14 -1 25 3 25 5 0 9
-7 9 -15z m76 0 c-22 -17 -36 -19 -36 -7 0 14 12 22 34 22 21 -1 21 -1 2 -15z
m-291 -5 c3 -5 1 -10 -4 -10 -6 0 -11 5 -11 10 0 6 2 10 4 10 3 0 8 -4 11 -10z
m-1605 -10 c13 -8 13 -10 -2 -10 -9 0 -20 5 -23 10 -8 13 5 13 25 0z m1645
-10 c3 -5 1 -10 -4 -10 -6 0 -11 5 -11 10 0 6 2 10 4 10 3 0 8 -4 11 -10z m55
-15 c0 -7 18 -17 40 -24 49 -15 44 -32 -8 -24 -39 6 -78 35 -69 50 9 14 37 12
37 -2z m95 -5 c8 -13 -5 -13 -25 0 -13 8 -13 10 2 10 9 0 20 -4 23 -10z
m-1818 -17 c-9 -9 -19 -14 -23 -11 -10 10 6 28 24 28 15 0 15 -1 -1 -17z m53
-43 c0 -5 -4 -10 -10 -10 -5 0 -10 5 -10 10 0 6 5 10 10 10 6 0 10 -4 10 -10z
m1830 -37 c0 -7 -39 17 -46 28 -3 6 5 3 20 -6 14 -10 26 -19 26 -22z m-1662 8
c3 -8 -1 -12 -9 -9 -7 2 -15 10 -17 17 -3 8 1 12 9 9 7 -2 15 -10 17 -17z
m1448 5 c3 -9 12 -12 22 -8 15 5 15 3 4 -10 -11 -14 -10 -17 10 -20 13 -2 23
-10 23 -18 0 -11 10 -15 33 -14 22 1 32 -3 32 -13 0 -8 4 -12 9 -9 12 8 41 -3
41 -15 0 -4 -7 -6 -16 -2 -9 3 -20 0 -25 -8 -6 -10 -9 -10 -9 -1 0 6 -6 12
-14 12 -17 0 -10 -37 11 -62 14 -16 12 -16 -34 0 -38 13 -48 21 -48 38 0 12 3
20 8 17 4 -2 10 3 13 11 6 16 -22 53 -33 42 -3 -3 -12 2 -19 12 -8 10 -13 12
-14 5 0 -7 -4 -13 -8 -13 -5 0 -8 16 -8 35 1 36 12 46 22 21z m261 -27 c1 -14
0 -17 -3 -6 -3 9 -10 17 -15 17 -5 0 -9 5 -9 11 0 22 25 2 27 -22z m-1853 -14
c11 -8 18 -15 15 -16 -37 -8 -79 -4 -79 8 0 9 8 12 28 7 21 -4 24 -3 12 5 -8
6 -10 11 -5 11 6 -1 19 -7 29 -15z m186 -10 c-7 -9 -15 -13 -17 -11 -7 7 7 26
19 26 6 0 6 -6 -2 -15z m1560 5 c0 -5 -12 -10 -26 -10 -14 0 -23 4 -19 10 3 6
15 10 26 10 10 0 19 -4 19 -10z m60 -10 c0 -5 -2 -10 -4 -10 -3 0 -8 5 -11 10
-3 6 -1 10 4 10 6 0 11 -4 11 -10z m-266 -46 c9 -3 16 -10 16 -15 0 -13 -23
-10 -44 6 -16 12 -17 15 -4 15 9 0 23 -3 32 -6z m271 -22 c-3 -3 -11 0 -18 7
-9 10 -8 11 6 5 10 -3 15 -9 12 -12z m-174 -56 c11 6 11 4 0 -10 -13 -16 -12
-17 12 -11 26 7 34 -3 28 -37 -2 -13 16 -9 29 7 7 8 18 15 24 15 6 0 5 -4 -3
-9 -13 -8 -13 -12 0 -28 13 -17 13 -17 -4 -4 -15 12 -20 12 -27 2 -6 -11 -12
-10 -31 3 -13 9 -23 20 -21 24 1 4 -4 7 -10 7 -15 0 -37 36 -30 49 2 4 8 3 12
-4 5 -8 13 -9 21 -4z m169 -1 c9 -10 9 -15 1 -15 -6 0 -11 5 -11 10 0 7 -6 7
-19 0 -27 -14 -34 -13 -19 5 17 19 32 19 48 0z m-87 -22 c-7 -2 -19 -2 -25 0
-7 3 -2 5 12 5 14 0 19 -2 13 -5z m-109 -31 c2 -4 0 -14 -5 -22 -8 -13 -10
-13 -18 0 -10 15 -6 30 9 30 5 0 11 -4 14 -8z m23 -34 c-3 -8 -6 -5 -6 6 -1
11 2 17 5 13 3 -3 4 -12 1 -19z m-37 -38 c-6 -11 -13 -20 -16 -20 -3 0 -2 5 2
11 3 6 0 15 -7 20 -10 6 -8 9 9 9 20 0 21 -3 12 -20z m76 5 c-36 -19 -57 -19
-32 0 11 8 29 15 40 15 18 0 16 -3 -8 -15z m-1 -55 c3 -5 1 -10 -4 -10 -6 0
-11 5 -11 10 0 6 2 10 4 10 3 0 8 -4 11 -10z m104 -6 c10 -10 -8 -13 -43 -7
-26 4 -33 9 -24 15 12 7 57 2 67 -8z m-1699 -49 c0 -1 -6 -8 -14 -14 -12 -10
-17 -8 -25 7 -9 17 -7 18 14 14 14 -2 25 -6 25 -7z m-158 -17 c-9 -9 -15 -9
-24 0 -9 9 -7 12 12 12 19 0 21 -3 12 -12z m185 -2 c-17 -13 -17 -19 -5 -70
10 -45 17 -56 32 -56 19 0 19 -1 2 -13 -14 -10 -15 -18 -7 -40 6 -15 15 -27
21 -27 7 0 5 -7 -4 -15 -8 -9 -13 -27 -11 -43 2 -15 4 -33 4 -39 1 -7 8 -13
17 -13 11 0 14 -6 9 -21 -5 -15 -4 -19 4 -15 14 9 14 -7 0 -21 -16 -16 -4 -29
31 -36 38 -8 44 -47 8 -47 -19 0 -20 2 -8 10 12 8 11 10 -7 10 -13 0 -23 5
-23 10 0 6 -7 10 -15 10 -8 0 -15 -4 -15 -10 0 -5 -5 -10 -12 -10 -9 0 -9 3 0
12 9 9 8 16 -5 30 -15 17 -15 18 5 18 13 0 20 5 17 13 -11 27 -38 156 -46 217
-5 36 -11 84 -15 107 -5 35 -3 42 13 46 29 7 29 7 10 -7z m1683 4 c0 -5 -2
-10 -4 -10 -3 0 -8 5 -11 10 -3 6 -1 10 4 10 6 0 11 -4 11 -10z m60 -10 c0 -5
-12 -10 -27 -9 l-28 1 25 8 c14 4 26 8 28 9 1 1 2 -3 2 -9z m-114 -19 c-3 -5
-15 -7 -26 -4 -28 7 -25 13 6 13 14 0 23 -4 20 -9z m-3 -28 c-7 -2 -19 -2 -25
0 -7 3 -2 5 12 5 14 0 19 -2 13 -5z m77 -13 c0 -5 -2 -10 -4 -10 -3 0 -8 5
-11 10 -3 6 -1 10 4 10 6 0 11 -4 11 -10z m-16 -47 c8 3 17 -1 20 -9 7 -19
-39 -30 -67 -15 -21 11 -21 11 3 6 21 -5 22 -4 7 5 -9 6 -15 16 -11 21 4 6 11
6 20 -2 7 -6 20 -9 28 -6z m76 -4 c0 -6 -4 -7 -10 -4 -5 3 -10 11 -10 16 0 6
5 7 10 4 6 -3 10 -11 10 -16z m-349 -25 c5 -15 8 -29 5 -31 -2 -2 -8 10 -14
26 -13 38 -5 41 9 5z m-1446 -4 c-3 -5 -15 -10 -26 -10 -10 0 -19 5 -19 10 0
6 12 10 26 10 14 0 23 -4 19 -10z m-39 -37 c-6 -6 -36 9 -36 18 0 5 9 4 20 -3
10 -7 18 -14 16 -15z m1634 -6 c0 -19 41 -42 50 -27 5 8 12 7 24 -5 9 -9 16
-20 16 -25 0 -5 12 -21 28 -36 15 -15 20 -23 12 -18 -24 13 -50 12 -50 -3 0
-15 -26 -18 -35 -3 -3 5 5 15 19 22 27 11 37 34 12 25 -9 -4 -12 0 -9 12 4 15
-2 17 -38 15 -24 -1 -45 -7 -47 -14 -2 -6 2 -11 9 -10 24 3 60 -12 56 -24 -7
-20 -37 -18 -62 6 -23 22 -34 49 -17 47 18 -3 22 2 13 20 -10 18 -6 31 11 31
4 0 8 -6 8 -13z m-1598 -42 c3 -14 1 -25 -3 -25 -5 0 -9 7 -9 15 0 7 -8 19
-17 24 -16 9 -16 10 3 11 15 0 23 -8 26 -25z m432 10 c3 -9 -1 -18 -10 -22
-19 -7 -26 0 -18 21 8 20 20 21 28 1z m1076 -35 c0 -5 -5 -10 -11 -10 -5 0 -7
5 -4 10 3 6 8 10 11 10 2 0 4 -4 4 -10z m-1382 -11 c-2 -6 -7 -10 -11 -10 -4
1 -14 1 -22 1 -8 0 -15 5 -15 10 0 6 12 10 26 10 14 0 24 -5 22 -11z m252 1
c0 -5 -5 -10 -11 -10 -5 0 -7 5 -4 10 3 6 8 10 11 10 2 0 4 -4 4 -10z m-420
-10 c0 -5 -4 -10 -10 -10 -5 0 -10 5 -10 10 0 6 5 10 10 10 6 0 10 -4 10 -10z
m180 -29 c0 -5 -9 -7 -20 -4 -11 3 -20 7 -20 9 0 2 9 4 20 4 11 0 20 -4 20 -9z
m1628 -28 c6 -6 12 -16 12 -22 0 -6 5 -11 12 -11 6 0 8 -3 4 -7 -4 -5 -13 -1
-19 8 -7 9 -22 19 -35 23 -12 4 -22 12 -22 17 0 13 31 7 48 -8z m-122 -3 c8 0
14 -4 14 -9 0 -11 -49 -1 -57 12 -4 7 0 8 11 4 10 -4 24 -7 32 -7z m-1672 -25
c3 -8 1 -15 -4 -15 -6 0 -10 7 -10 15 0 8 2 15 4 15 2 0 6 -7 10 -15z m186
-10 c0 -8 -2 -15 -4 -15 -2 0 -6 7 -10 15 -3 8 -1 15 4 15 6 0 10 -7 10 -15z
m1520 -25 c0 -5 -4 -10 -10 -10 -5 0 -10 5 -10 10 0 6 5 10 10 10 6 0 10 -4
10 -10z m-1790 -10 c0 -5 -5 -10 -11 -10 -5 0 -7 5 -4 10 3 6 8 10 11 10 2 0
4 -4 4 -10z m1770 -30 c0 -5 -7 -10 -16 -10 -9 0 -14 -6 -11 -12 2 -7 8 -13
13 -13 5 0 20 -10 34 -22 13 -13 31 -23 41 -23 15 0 15 -4 6 -24 -7 -15 -17
-22 -26 -18 -10 4 -11 7 -3 10 15 5 -41 62 -61 62 -7 0 -19 11 -25 24 -10 23
-9 25 16 29 15 2 28 5 30 6 1 0 2 -3 2 -9z m-1746 -45 c6 -17 2 -18 -45 -8
-28 5 -30 7 -14 14 32 12 52 10 59 -6z m116 11 c0 -2 -8 -10 -17 -17 -16 -13
-17 -12 -4 4 13 16 21 21 21 13z m54 -45 c3 -4 -3 -16 -12 -25 -17 -14 -20
-14 -38 0 -18 15 -18 15 4 10 18 -3 22 -1 18 10 -6 15 19 20 28 5z m1509 -23
c-4 -7 -7 -26 -6 -43 1 -19 0 -22 -4 -10 -3 11 -9 24 -14 30 -14 14 -11 23 9
28 9 3 18 5 20 6 2 0 0 -5 -5 -11z m-1476 -14 c-3 -3 -12 -4 -19 -1 -8 3 -5 6
6 6 11 1 17 -2 13 -5z m-12 -24 c3 -5 1 -10 -4 -10 -6 0 -11 5 -11 10 0 6 2
10 4 10 3 0 8 -4 11 -10z m1594 -12 c5 -13 8 -24 6 -26 -1 -1 -19 5 -41 13
l-39 15 35 -6 c33 -6 34 -5 15 10 -18 14 -18 15 -2 16 10 0 21 -10 26 -22z
m70 -1 c6 -8 8 -17 4 -20 -11 -11 -23 -8 -20 6 1 6 -6 11 -15 9 -10 -2 -18 2
-18 8 0 15 36 12 49 -3z m-1801 -41 c-10 -7 -15 -16 -11 -19 3 -4 -1 -7 -10
-7 -15 0 -15 3 -5 20 7 11 20 20 28 20 12 -1 12 -3 -2 -14z m1670 -15 c3 -8
-3 -8 -23 -1 l-26 10 4 -54 c4 -43 1 -56 -11 -61 -20 -7 -5 -22 28 -28 14 -2
1 -4 -28 -4 -29 0 -55 3 -58 8 -3 5 3 6 12 2 10 -4 15 -2 11 3 -3 6 3 17 14
24 19 15 28 36 9 25 -6 -3 -17 1 -26 9 -14 14 -18 13 -41 -12 -14 -15 -20 -19
-13 -10 7 10 10 25 6 33 -4 12 1 14 26 10 17 -3 35 -8 39 -10 4 -3 10 2 13 11
5 13 2 15 -14 11 -13 -3 -20 0 -20 9 0 13 13 19 33 15 5 -1 5 4 1 10 -3 6 -1
15 6 19 16 10 52 -2 58 -19z m122 4 c0 -8 -8 -11 -20 -8 -11 3 -20 11 -20 18
0 8 8 11 20 8 11 -3 20 -11 20 -18z m-70 4 c0 -6 -6 -9 -14 -6 -8 3 -17 1 -20
-6 -2 -7 -5 -4 -5 6 -1 11 6 17 19 17 11 0 20 -5 20 -11z m-1655 -19 c18 -8
18 -9 -5 -9 -14 0 -34 4 -45 9 -18 8 -18 9 5 9 14 0 34 -4 45 -9z m1395 -37
c0 -7 7 -13 16 -13 8 0 13 -4 10 -8 -3 -5 -19 -7 -37 -4 -22 3 -30 1 -25 -7 4
-6 19 -11 32 -11 16 0 24 -5 21 -12 -2 -7 -14 -12 -26 -11 -12 2 -19 -1 -16
-7 3 -5 -6 -12 -20 -16 -33 -8 -31 -47 3 -52 12 -2 22 -10 22 -18 0 -16 18
-18 40 -4 12 8 11 10 -7 10 -13 0 -23 5 -23 11 0 7 7 8 18 4 9 -4 25 -10 35
-12 23 -7 22 -23 -3 -23 -29 0 -24 -16 9 -31 18 -8 26 -16 19 -20 -6 -4 -23 0
-36 9 -14 9 -32 17 -40 18 -8 2 -18 7 -21 12 -9 14 -44 11 -63 -5 -11 -10 -18
-11 -23 -4 -3 6 -20 11 -36 11 -18 0 -28 4 -24 10 4 6 11 7 17 4 7 -5 9 2 4
19 -3 14 -2 28 4 32 5 3 7 12 4 19 -3 7 2 16 11 20 15 5 16 0 10 -45 -9 -61 3
-59 33 5 12 24 28 46 37 50 14 5 14 8 -1 31 -16 25 -16 25 15 25 33 0 44 25
16 36 -8 4 -12 11 -8 17 7 12 33 -19 33 -40z m209 18 c7 -5 9 -11 5 -14 -5 -3
-15 1 -22 9 -14 16 -5 18 17 5z m-1589 -11 c0 -5 8 -11 18 -11 16 -1 16 -2 0
-6 -10 -2 -25 3 -34 11 -14 15 -14 16 0 16 9 0 16 -4 16 -10z m1567 -32 c-3
-7 -5 -2 -5 12 0 14 2 19 5 13 2 -7 2 -19 0 -25z m83 16 c0 -8 -4 -12 -10 -9
-5 3 -10 10 -10 16 0 5 5 9 10 9 6 0 10 -7 10 -16z m-367 -9 c-3 -9 -8 -14
-10 -11 -3 3 -2 9 2 15 9 16 15 13 8 -4z m-766 -1 c-3 -3 -12 -4 -19 -1 -8 3
-5 6 6 6 11 1 17 -2 13 -5z m1168 -4 c3 -5 2 -10 -4 -10 -5 0 -13 5 -16 10 -3
6 -2 10 4 10 5 0 13 -4 16 -10z m-70 -10 c-12 -5 -14 -9 -6 -9 8 -1 12 -4 8
-7 -9 -9 -28 6 -22 17 4 5 14 9 23 8 14 0 13 -2 -3 -9z m-355 -10 c0 -5 -4
-10 -10 -10 -5 0 -10 5 -10 10 0 6 5 10 10 10 6 0 10 -4 10 -10z m220 -10 c0
-5 -5 -10 -11 -10 -5 0 -7 5 -4 10 3 6 8 10 11 10 2 0 4 -4 4 -10z m-1500 -16
c0 -2 -7 -4 -15 -4 -8 0 -15 4 -15 10 0 5 7 7 15 4 8 -4 15 -8 15 -10z m1700
6 c-19 -13 -30 -13 -30 0 0 6 10 10 23 10 18 0 19 -2 7 -10z m-523 -34 c-13
-28 -47 -32 -40 -5 4 16 16 23 45 28 3 0 1 -10 -5 -23z m279 6 c15 4 58 -14
83 -33 26 -21 12 -26 -18 -7 -15 9 -22 8 -36 -6 -17 -17 -17 -17 0 -14 10 2
20 -3 22 -9 3 -8 -4 -13 -15 -13 -12 0 -23 9 -27 19 -3 11 -16 22 -28 24 -13
3 -7 5 16 6 46 1 49 19 3 19 -43 0 -64 11 -45 23 7 4 19 3 25 -2 7 -5 16 -9
20 -7z m206 8 c4 -13 33 -16 74 -6 25 6 31 4 31 -11 0 -18 -14 -33 -31 -33 -5
0 -3 7 4 15 10 12 7 13 -22 5 -56 -17 -73 -13 -76 15 -2 24 13 35 20 15z
m-1752 -29 c0 -26 -10 -31 -37 -20 -27 10 -30 26 -5 32 34 9 42 7 42 -12z
m1310 15 c0 -3 -4 -8 -10 -11 -5 -3 -10 -1 -10 4 0 6 5 11 10 11 6 0 10 -2 10
-4z m-1120 -56 c0 -5 -12 -10 -27 -9 l-28 1 25 8 c14 4 26 8 28 9 1 1 2 -3 2
-9z m1565 0 c3 -6 -1 -7 -9 -4 -18 7 -21 14 -7 14 6 0 13 -4 16 -10z m-1635
-10 c0 -5 -4 -10 -10 -10 -5 0 -10 5 -10 10 0 6 5 10 10 10 6 0 10 -4 10 -10z
m1527 -12 c-3 -8 -6 -5 -6 6 -1 11 2 17 5 13 3 -3 4 -12 1 -19z m37 -12 c-3
-14 -10 -26 -15 -26 -5 0 -6 7 -4 15 3 8 7 22 10 31 9 27 17 9 9 -20z m135 1
c6 -8 8 -17 4 -20 -11 -12 -23 -7 -23 9 0 8 -4 12 -10 9 -5 -3 -10 -1 -10 4 0
15 25 14 39 -2z m-183 -10 c8 3 14 0 14 -6 0 -16 -33 -27 -38 -13 -2 7 -11 12
-20 13 -13 0 -13 2 3 8 11 5 21 5 23 0 2 -4 10 -5 18 -2z m166 -24 c10 -13 10
-17 1 -20 -19 -7 -15 -33 5 -33 16 -1 16 -1 0 -11 -18 -10 -64 -3 -74 13 -3 5
5 6 20 2 29 -7 34 7 11 26 -8 7 -15 18 -15 24 0 18 37 17 52 -1z m-282 -23 c0
-5 -2 -10 -4 -10 -3 0 -8 5 -11 10 -3 6 -1 10 4 10 6 0 11 -4 11 -10z m71 -11
c10 -19 9 -20 -13 -14 -32 10 -35 15 -18 25 19 12 18 13 31 -11z m64 3 c-3 -3
-11 0 -18 7 -9 10 -8 11 6 5 10 -3 15 -9 12 -12z m0 -22 c3 -5 -3 -10 -14 -10
-11 0 -23 5 -26 10 -3 6 3 10 14 10 11 0 23 -4 26 -10z m65 -15 c11 -13 10
-14 -4 -9 -9 3 -16 10 -16 15 0 13 6 11 20 -6z m-88 -24 c-4 -11 0 -13 20 -8
23 6 25 4 22 -22 -3 -26 0 -30 34 -39 l37 -10 -32 -1 c-30 -1 -63 20 -63 40 0
5 -11 11 -25 15 -14 3 -23 10 -20 14 3 5 -3 13 -12 19 -15 9 -13 10 13 9 23
-2 30 -6 26 -17z m105 -37 c-3 -3 -12 -4 -19 -1 -8 3 -5 6 6 6 11 1 17 -2 13
-5z m56 -26 c28 -14 33 -23 18 -33 -6 -3 -15 4 -21 15 -6 11 -15 18 -20 15 -5
-3 -11 -1 -15 5 -8 13 5 13 38 -2z m-18 -28 c3 -6 -1 -7 -9 -4 -18 7 -21 14
-7 14 6 0 13 -4 16 -10z m85 -30 c0 -5 -7 -10 -15 -10 -8 0 -15 -5 -15 -11 0
-8 -6 -7 -16 2 -15 12 -14 14 7 20 35 10 39 10 39 -1z"/>
<path d="M995 1950 c3 -5 8 -10 11 -10 2 0 4 5 4 10 0 6 -5 10 -11 10 -5 0 -7
-4 -4 -10z"/>
<path d="M1150 1802 c0 -5 11 -12 25 -14 14 -3 25 -1 25 3 0 5 -4 9 -9 9 -5 0
-16 3 -25 6 -9 3 -16 2 -16 -4z"/>
<path d="M690 1790 c0 -5 7 -7 15 -4 8 4 15 8 15 10 0 2 -7 4 -15 4 -8 0 -15
-4 -15 -10z"/>
<path d="M318 1763 c7 -3 16 -2 19 1 4 3 -2 6 -13 5 -11 0 -14 -3 -6 -6z"/>
<path d="M766 1708 c-3 -7 -9 -28 -15 -47 -17 -51 -14 -71 9 -71 12 0 20 7 20
18 0 14 -2 15 -10 2 -16 -25 -12 21 5 50 8 14 14 33 15 43 0 19 -19 23 -24 5z"/>
<path d="M820 1684 c0 -8 -4 -13 -8 -10 -4 3 -8 -14 -7 -37 1 -35 5 -42 26
-48 33 -10 129 -11 129 -1 0 4 -32 8 -72 9 -39 2 -73 4 -75 6 -2 2 4 20 12 40
18 42 19 57 5 57 -5 0 -10 -7 -10 -16z"/>
<path d="M280 1681 c-17 -5 -21 -9 -12 -15 15 -9 52 1 52 15 0 10 -4 10 -40 0z"/>
<path d="M359 1653 c-1 -17 -3 -21 -6 -10 -2 9 -9 17 -14 17 -6 0 -8 -4 -5 -9
3 -5 -1 -11 -9 -15 -8 -3 -15 -10 -15 -15 0 -9 15 -5 73 15 21 8 22 30 1 38
-23 9 -24 8 -25 -21z"/>
<path d="M716 1659 c5 -9 -6 -10 -43 -5 -40 5 -53 3 -65 -11 -23 -27 -32 -63
-16 -63 19 0 37 20 32 34 -3 7 7 13 25 14 40 3 81 19 81 32 0 5 -5 10 -11 10
-5 0 -7 -5 -3 -11z"/>
<path d="M1016 1651 c-5 -7 -19 -16 -32 -21 -13 -5 -24 -14 -24 -20 0 -15 16
-12 35 6 18 18 17 19 31 -15 15 -36 22 -12 9 28 -8 22 -15 30 -19 22z"/>
<path d="M851 1634 c0 -11 3 -14 6 -6 3 7 2 16 -1 19 -3 4 -6 -2 -5 -13z"/>
<path d="M950 1639 c0 -5 5 -7 10 -4 6 3 10 8 10 11 0 2 -4 4 -10 4 -5 0 -10
-5 -10 -11z"/>
<path d="M925 1620 c-3 -5 -1 -10 4 -10 6 0 11 5 11 10 0 6 -2 10 -4 10 -3 0
-8 -4 -11 -10z"/>
<path d="M1780 1600 c0 -5 4 -10 9 -10 6 0 13 5 16 10 3 6 -1 10 -9 10 -9 0
-16 -4 -16 -10z"/>
<path d="M970 1585 c0 -2 18 -14 40 -25 43 -22 80 -26 80 -9 0 6 -6 9 -12 6
-7 -2 -32 4 -56 15 -47 19 -52 21 -52 13z"/>
<path d="M1380 1305 c0 -4 130 -92 185 -125 54 -33 27 2 -30 38 -58 37 -155
92 -155 87z"/>
<path d="M1648 1225 c2 -14 6 -25 8 -25 2 0 4 11 4 25 0 14 -4 25 -9 25 -4 0
-6 -11 -3 -25z"/>
<path d="M1694 1189 c-3 -6 -1 -16 5 -22 8 -8 11 -5 11 11 0 24 -5 28 -16 11z"/>
<path d="M1516 303 c-6 -14 -5 -15 5 -6 7 7 10 15 7 18 -3 3 -9 -2 -12 -12z"/>
<path d="M1022 950 c-46 -7 -62 -21 -62 -56 0 -44 178 -68 230 -31 14 9 19 17
13 17 -7 0 -10 7 -7 18 5 13 4 14 -4 3 -8 -12 -16 -10 -46 8 -46 29 -46 35 -1
17 19 -8 35 -13 35 -10 0 12 -69 32 -90 27 -16 -4 -21 -3 -16 5 4 7 4 11 -1
11 -4 -1 -28 -5 -51 -9z m48 -40 c0 -5 -7 -7 -15 -4 -8 4 -15 8 -15 10 0 2 7
4 15 4 8 0 15 -4 15 -10z m60 -25 c16 -19 12 -23 -30 -31 l-33 -7 19 26 c22
31 27 32 44 12z"/>
<path d="M5 919 c-9 -14 -2 -20 14 -10 8 6 9 11 3 15 -6 3 -14 1 -17 -5z"/>
<path d="M1610 786 c0 -9 5 -16 10 -16 6 0 10 -9 10 -20 0 -11 5 -20 11 -20
18 0 6 64 -13 68 -11 2 -18 -3 -18 -12z"/>
<path d="M1500 711 c0 -12 29 -35 36 -28 11 10 -5 37 -21 37 -8 0 -15 -4 -15
-9z"/>
<path d="M640 653 c1 -8 69 -43 83 -43 3 0 4 6 1 14 -8 21 -84 47 -84 29z"/>
<path d="M1977 648 c-16 -12 -16 -14 3 -26 18 -11 20 -10 20 13 0 29 -1 29
-23 13z"/>
<path d="M610 632 c0 -15 24 -32 45 -32 19 0 18 2 -5 20 -27 21 -40 25 -40 12z"/>
<path d="M776 631 c-4 -6 1 -11 11 -11 10 0 29 -7 41 -16 28 -19 35 -16 18 8
-15 21 -62 33 -70 19z"/>
<path d="M1222 323 c-7 -2 -30 -21 -52 -40 -21 -19 -52 -42 -67 -50 -15 -8
-50 -27 -78 -41 -53 -28 -126 -51 -162 -52 -13 0 -23 -5 -23 -11 0 -22 40 -77
60 -82 12 -3 20 -14 20 -26 0 -23 7 -26 29 -12 12 8 13 16 4 45 -6 20 -7 36
-2 36 5 0 9 7 9 15 0 15 80 75 101 75 35 0 159 91 159 116 0 7 8 18 18 23 17
11 7 13 -16 4z"/>
<path d="M660 26 c0 -8 5 -18 10 -21 6 -3 10 1 10 9 0 8 -4 18 -10 21 -5 3
-10 -1 -10 -9z"/>
</g>
</svg>
